<svg xmlns="http://www.w3.org/2000/svg" version="1.1" xmlns:xlink="http://www.w3.org/1999/xlink" xmlns:svgjs="http://svgjs.dev/svgjs" width="1000" height="1000" viewBox="0 0 1000 1000"><rect width="1000" height="1000" fill="#ffffff"></rect><g transform="matrix(0.7,0,0,0.7,149.57575770120008,371.17741400869613)"><svg viewBox="0 0 396 146" data-background-color="#636365" preserveAspectRatio="xMidYMid meet" height="368" width="1000" xmlns="http://www.w3.org/2000/svg" xmlns:xlink="http://www.w3.org/1999/xlink"><g id="tight-bounds" transform="matrix(1,0,0,1,0.2400000709646406,0.012801066499875446)"><svg viewBox="0 0 395.52 145.9743960827548" height="145.9743960827548" width="395.52"><g><svg viewBox="0 0 395.52 145.9743960827548" height="145.9743960827548" width="395.52"><g transform="matrix(1,0,0,1,0,107.09971856815602)"><svg viewBox="0 0 395.52 38.87467751459878" height="38.87467751459878" width="395.52"><g id="textblocktransform"><svg viewBox="0 0 395.52 38.87467751459878" height="38.87467751459878" width="395.52" id="textblock"><g><svg viewBox="0 0 395.52 38.87467751459878" height="38.87467751459878" width="395.52"><g transform="matrix(1,0,0,1,0,0)"><svg width="395.52" viewBox="2.6100001335144043 -36.060001373291016 372.07000732421875 36.56999969482422" height="38.87467751459878" data-palette-color="#d2d6dc"><path d="M14.58 0.51L14.58 0.51Q11.52 0.51 8.48-0.42 5.44-1.34 2.61-3.3L2.61-3.3 2.61-10.18 5.05-10.18 5.42-4.64Q7.57-3.3 9.89-2.64 12.21-1.98 14.58-1.98L14.58-1.98Q17.38-1.98 19.47-2.84 21.56-3.71 22.72-5.26 23.88-6.81 23.88-8.84L23.88-8.84Q23.88-10.79 22.94-12.27 22-13.75 19.89-14.87 17.77-15.99 14.16-16.92L14.16-16.92Q10.28-17.92 7.82-19.26 5.37-20.61 4.21-22.5 3.05-24.39 3.05-27L3.05-27Q3.05-29.66 4.47-31.7 5.88-33.74 8.44-34.9 10.99-36.06 14.38-36.06L14.38-36.06Q17.97-36.06 20.79-34.99 23.61-33.91 25.56-32.23L25.56-32.23 25.56-25.88 23.14-25.88 22.78-30.91Q21.24-32.15 19.14-32.86 17.04-33.57 14.38-33.57L14.38-33.57Q11.77-33.57 9.89-32.7 8.01-31.84 6.99-30.37 5.98-28.91 5.98-27.05L5.98-27.05Q5.98-25.27 6.79-23.91 7.59-22.56 9.57-21.52 11.55-20.48 15.11-19.53L15.11-19.53Q20.9-18.04 23.85-15.52 26.81-12.99 26.81-8.89L26.81-8.89Q26.81-6.05 25.26-3.94 23.71-1.83 20.95-0.66 18.19 0.51 14.58 0.51ZM41.89 0L31 0 31-2.12 34.98-2.44 34.98-33.08 31-33.4 31-35.55 41.89-35.55 41.89-33.4 37.91-33.08 37.91-18.85 57.98-18.85 57.98-33.08 54-33.4 54-35.55 57.98-35.55 60.91-35.55 64.89-35.55 64.89-33.4 60.91-33.08 60.91-2.44 64.89-2.12 64.89 0 54 0 54-2.12 57.98-2.44 57.98-16.38 37.91-16.38 37.91-2.44 41.89-2.12 41.89 0ZM94.84 0L68.57 0 68.57-2.12 72.55-2.44 72.55-33.08 68.57-33.4 68.57-35.55 94.11-35.55 94.11-27.76 91.62-27.76 91.38-33.13 75.48-33.13 75.48-19.68 89.81-19.68 89.81-17.24 75.48-17.24 75.48-2.37 92.13-2.37 92.38-7.79 94.84-7.79 94.84 0ZM124.48 0L99.99 0 99.99-2.12 103.97-2.44 103.97-33.08 99.99-33.4 99.99-35.55 103.97-35.55 106.9-35.55 110.88-35.55 110.88-33.4 106.9-33.08 106.9-2.42 121.82-2.42 122.09-8.15 124.48-8.15 124.48 0ZM140.13 0L137.34 0 124.97-33.23 122.26-33.4 122.26-35.55 131.63-35.55 131.63-33.4 128.12-33.18 137.95-6.18 138.69-3.83 138.83-3.83 139.57-6.18 149.55-33.18 145.86-33.4 145.86-35.55 155.24-35.55 155.24-33.4 152.5-33.23 140.13 0ZM169.37 0L158.48 0 158.48-2.12 162.46-2.44 162.46-33.08 158.48-33.4 158.48-35.55 169.37-35.55 169.37-33.4 165.39-33.08 165.39-2.44 169.37-2.12 169.37 0ZM183.97 0L173.08 0 173.08-2.12 177.06-2.44 177.06-33.08 173.08-33.4 173.08-35.55 177.06-35.55 180.01-35.55 200.33-4.98 200.47-5.03 200.47-33.08 196.32-33.4 196.32-35.55 203.23-35.55 207.21-35.55 207.21-33.4 203.23-33.08 203.23 0 200.5 0 179.97-30.69 179.82-30.64 179.82-2.44 183.97-2.12 183.97 0ZM234.01 0L223.12 0 223.12-2.12 227.1-2.44 227.1-33.08 223.12-33.4 223.12-35.55 227.1-35.55 238.11-35.55Q241.87-35.55 244.49-34.25 247.1-32.96 248.47-30.63 249.83-28.3 249.83-25.17L249.83-25.17Q249.83-22.02 248.47-19.69 247.1-17.36 244.49-16.08 241.87-14.79 238.11-14.79L238.11-14.79 230.03-14.79 230.03-2.44 234.01-2.12 234.01 0ZM230.03-33.08L230.03-17.24 238.11-17.24Q242.51-17.24 244.71-19.49 246.9-21.75 246.9-25.12L246.9-25.12Q246.9-28.56 244.72-30.82 242.53-33.08 238.11-33.08L238.11-33.08 230.03-33.08ZM256.81 0L248.05 0 248.05-2.12 250.66-2.29 263.28-35.55 266.07-35.55 278.59-2.29 281.2-2.12 281.2 0 272.44 0 272.44-2.12 275.56-2.34 272.61-10.38 256.67-10.38 253.69-2.34 256.81-2.12 256.81 0ZM264.09-30.4L257.62-12.94 271.66-12.94 265.24-30.4 264.75-31.84 264.6-31.84 264.09-30.4ZM299.68 0.51L299.68 0.51Q296.02 0.51 293.22-0.89 290.43-2.29 288.84-4.97 287.26-7.64 287.26-11.45L287.26-11.45 287.26-33.08 283.28-33.4 283.28-35.55 294.16-35.55 294.16-33.4 290.18-33.08 290.18-11.45Q290.18-8.42 291.39-6.31 292.6-4.2 294.75-3.09 296.9-1.98 299.71-1.98L299.71-1.98Q302.51-1.98 304.69-3.08 306.86-4.17 308.08-6.29 309.3-8.4 309.3-11.45L309.3-11.45 309.3-33.08 305.32-33.4 305.32-35.55 316.21-35.55 316.21-33.4 312.23-33.08 312.23-11.45Q312.23-7.57 310.66-4.91 309.08-2.25 306.25-0.87 303.42 0.51 299.68 0.51ZM344.11 0L319.63 0 319.63-2.12 323.61-2.44 323.61-33.08 319.63-33.4 319.63-35.55 323.61-35.55 326.54-35.55 330.51-35.55 330.51-33.4 326.54-33.08 326.54-2.42 341.45-2.42 341.72-8.15 344.11-8.15 344.11 0ZM363.93 0L353.05 0 353.05-2.12 357.03-2.44 357.03-13.23 345.21-33.2 342.3-33.4 342.3-35.55 352.24-35.55 352.24-33.4 348.51-33.2 357.9-16.82 358.47-15.72 358.49-15.77 359.08-16.82 368.65-33.2 364.86-33.4 364.86-35.55 374.68-35.55 374.68-33.4 371.67-33.2 359.96-13.4 359.96-2.44 363.93-2.12 363.93 0Z" opacity="1" transform="matrix(1,0,0,1,0,0)" fill="#000000" class="wordmark-text-0" data-fill-palette-color="primary" id="text-0"></path></svg></g></svg></g></svg></g></svg></g><g transform="matrix(1,0,0,1,153.3875190848584,0)"><svg viewBox="0 0 88.74496183028317 88.74496183028317" height="88.74496183028317" width="88.74496183028317"><g><svg></svg></g><g id="icon-0"><svg viewBox="0 0 88.74496183028317 88.74496183028317" height="88.74496183028317" width="88.74496183028317"><g><path d="M0 44.372c0-24.506 19.866-44.372 44.372-44.372 24.506 0 44.372 19.866 44.373 44.372 0 24.506-19.866 44.372-44.373 44.373-24.506 0-44.372-19.866-44.372-44.373zM44.372 85.239c22.57 0 40.867-18.297 40.867-40.867 0-22.57-18.297-40.867-40.867-40.866-22.57 0-40.867 18.297-40.866 40.866 0 22.57 18.297 40.867 40.866 40.867z" data-fill-palette-color="accent" fill="#000000" stroke="transparent"></path><ellipse rx="43.92875610599017" ry="43.92875610599017" cx="44.37248091514159" cy="44.37248091514159" fill="#000000" stroke="transparent" stroke-width="0" fill-opacity="1" data-fill-palette-color="accent"></ellipse></g><g transform="matrix(1,0,0,1,24.117932706155468,24.11729800617528)"><svg viewBox="0 0 40.50909641797224 40.510365817932616" height="40.510365817932616" width="40.50909641797224"><g><svg xmlns="http://www.w3.org/2000/svg" xmlns:xlink="http://www.w3.org/1999/xlink" version="1.1" x="0" y="0" viewBox="18.350997924804688 18.347999572753906 63.30200958251953 63.303993225097656" enable-background="new 0 0 100 100" xml:space="preserve" height="40.510365817932616" width="40.50909641797224" class="icon-s-0" data-fill-palette-color="quaternary" id="s-0"><g fill="#636365" data-fill-palette-color="quaternary"><path fill="#ffffff" d="M80.951 48.597c-4.329-3.261-9.009-4.911-13.907-4.911-0.107 0-0.213 0-0.32 0.002-0.104-0.002-0.212-0.002-0.318-0.002-0.431 0-0.857 0.029-1.283 0.054 0.399-0.354 0.792-0.717 1.168-1.103 3.598-3.496 5.814-8.047 6.587-13.531 0.078-0.548-0.105-1.098-0.496-1.487-0.391-0.39-0.941-0.573-1.488-0.497-5.482 0.773-10.035 2.99-13.529 6.589-0.384 0.373-0.744 0.764-1.097 1.161 0.032-0.53 0.054-1.062 0.046-1.597 0.073-5.016-1.579-9.801-4.91-14.227-0.331-0.44-0.851-0.7-1.401-0.7-0.552 0-1.072 0.26-1.404 0.7-3.33 4.425-4.981 9.211-4.909 14.227-0.008 0.535 0.014 1.066 0.045 1.597-0.352-0.396-0.713-0.788-1.097-1.161-3.493-3.599-8.045-5.816-13.529-6.589-0.549-0.076-1.098 0.107-1.487 0.497-0.39 0.391-0.574 0.941-0.498 1.487 0.774 5.484 2.99 10.036 6.588 13.531 0.375 0.386 0.769 0.748 1.168 1.103-0.427-0.024-0.854-0.054-1.284-0.054-0.107 0-0.213 0-0.319 0.002-0.106-0.002-0.212-0.002-0.321-0.002-4.898 0-9.577 1.65-13.905 4.911-0.44 0.332-0.7 0.851-0.7 1.402 0 0.553 0.259 1.071 0.7 1.403 4.329 3.26 9.008 4.91 13.908 4.91 0.106 0 0.212 0 0.318-0.002 0.106 0.002 0.223-0.006 0.318 0.002 0.432 0 0.859-0.029 1.288-0.053-0.399 0.354-0.793 0.717-1.168 1.104-3.599 3.494-5.816 8.047-6.59 13.529-0.077 0.547 0.107 1.096 0.498 1.486 0.331 0.332 0.779 0.516 1.242 0.516 0.081 0 0.163-0.006 0.246-0.018 5.484-0.773 10.036-2.99 13.529-6.588 0.384-0.373 0.745-0.766 1.097-1.162-0.031 0.531-0.053 1.062-0.045 1.598-0.073 5.016 1.579 9.801 4.909 14.227 0.332 0.441 0.853 0.701 1.404 0.701 0.551 0 1.07-0.26 1.402-0.701 3.33-4.426 4.982-9.211 4.909-14.227 0.008-0.535-0.014-1.066-0.046-1.596 0.353 0.396 0.712 0.789 1.097 1.16 3.494 3.598 8.046 5.814 13.529 6.588 0.082 0.012 0.165 0.018 0.246 0.018 0.461 0 0.91-0.184 1.242-0.516 0.391-0.391 0.574-0.939 0.496-1.486-0.772-5.484-2.99-10.037-6.588-13.529-0.375-0.387-0.77-0.75-1.169-1.104 0.428 0.023 0.855 0.053 1.286 0.053 0.107 0 0.213 0 0.317-0.002 0.106 0.002 0.213 0.002 0.318 0.002 0.001 0 0 0 0.001 0 4.899 0 9.579-1.65 13.908-4.91 0.44-0.332 0.7-0.85 0.7-1.403C81.651 49.448 81.392 48.929 80.951 48.597zM48.784 49.509l1.217-1.215 1.214 1.215-1.214 1.215L48.784 49.509zM59.828 36.215c0.013-0.014 0.026-0.027 0.039-0.04 2.41-2.489 5.449-4.198 9.058-5.099-0.901 3.607-2.61 6.646-5.099 9.057-0.014 0.012-0.027 0.027-0.04 0.04-2.411 2.489-5.449 4.198-9.057 5.099C55.63 41.665 57.339 38.624 59.828 36.215zM47.2 33.247c-0.054-3.464 0.886-6.822 2.801-10.009 1.914 3.187 2.854 6.545 2.799 10.008 0 0.02 0 0.039 0 0.058 0.056 3.463-0.885 6.82-2.799 10.008-1.915-3.188-2.854-6.544-2.801-10.009C47.2 33.285 47.2 33.266 47.2 33.247zM31.077 31.076c3.608 0.9 6.647 2.609 9.056 5.099 0.014 0.013 0.027 0.026 0.04 0.04 2.489 2.409 4.199 5.448 5.098 9.057-3.606-0.901-6.646-2.61-9.057-5.101-0.013-0.013-0.027-0.026-0.039-0.039C33.686 37.722 31.977 34.684 31.077 31.076zM33.303 52.799c-0.009 0-0.018 0-0.027 0s-0.019 0-0.029 0c-0.096 0.002-0.192 0.004-0.289 0.004-3.361 0-6.62-0.941-9.72-2.803 3.099-1.861 6.358-2.801 9.717-2.801 0.098 0 0.195 0 0.292 0.002 0.019 0.001 0.038 0.001 0.056 0 0.098-0.002 0.195-0.002 0.292-0.002 3.359 0 6.619 0.939 9.717 2.801-3.099 1.862-6.359 2.803-9.719 2.803C33.496 52.803 33.399 52.801 33.303 52.799zM40.174 63.785c-0.014 0.014-0.027 0.025-0.041 0.039-2.409 2.488-5.448 4.197-9.056 5.1 0.899-3.607 2.608-6.646 5.098-9.059 0.013-0.012 0.026-0.025 0.041-0.039 2.409-2.488 5.448-4.197 9.056-5.098C44.371 58.336 42.662 61.375 40.174 63.785zM52.8 66.752c0.056 3.465-0.885 6.822-2.799 10.01-1.915-3.188-2.854-6.545-2.801-10.01 0-0.02 0-0.037 0-0.055-0.054-3.465 0.886-6.822 2.801-10.01 1.914 3.188 2.854 6.545 2.799 10.01C52.8 66.715 52.8 66.732 52.8 66.752zM68.924 68.924c-3.607-0.902-6.646-2.611-9.058-5.098-0.013-0.014-0.025-0.027-0.038-0.041-2.489-2.41-4.198-5.449-5.099-9.057 3.607 0.9 6.646 2.609 9.056 5.098 0.014 0.014 0.026 0.027 0.04 0.039C66.314 62.277 68.022 65.314 68.924 68.924zM67.042 52.803c-0.096 0-0.192-0.002-0.289-0.004-0.01 0-0.02 0-0.029 0-0.009 0-0.018 0-0.028 0-0.096 0.002-0.192 0.004-0.289 0.004-3.361 0-6.62-0.941-9.718-2.803 3.098-1.861 6.356-2.801 9.717-2.801 0.097 0 0.194 0 0.29 0.002 0.02 0.001 0.039 0.001 0.058 0 0.097-0.002 0.194-0.002 0.291-0.002 3.36 0 6.62 0.939 9.718 2.801C73.664 51.861 70.404 52.803 67.042 52.803z" data-fill-palette-color="quaternary"></path><circle fill="#ffffff" cx="66.725" cy="50" r="2.3" data-fill-palette-color="quaternary"></circle><circle fill="#ffffff" cx="33.276" cy="50" r="2.3" data-fill-palette-color="quaternary"></circle><circle fill="#ffffff" cx="50" cy="66.725" r="2.3" data-fill-palette-color="quaternary"></circle><circle fill="#ffffff" cx="50" cy="33.275" r="2.3" data-fill-palette-color="quaternary"></circle><circle fill="#ffffff" cx="61.827" cy="61.825" r="2.3" data-fill-palette-color="quaternary"></circle><circle fill="#ffffff" cx="38.174" cy="38.174" r="2.3" data-fill-palette-color="quaternary"></circle><circle fill="#ffffff" cx="38.174" cy="61.825" r="2.3" data-fill-palette-color="quaternary"></circle><circle fill="#ffffff" cx="61.827" cy="38.174" r="2.3" data-fill-palette-color="quaternary"></circle></g></svg></g></svg></g></svg></g></svg></g><g></g></svg></g><defs></defs></svg><rect width="395.52" height="145.9743960827548" fill="none" stroke="none" visibility="hidden"></rect></g></svg></g></svg>